<?xml version="1.0" encoding="UTF-8" standalone="no"?>
<!-- Created with Inkscape (http://www.inkscape.org/) -->

<svg
   width="453.5433"
   height="340.15747"
   id="svg2"
   sodipodi:version="0.32"
   inkscape:version="0.44.1"
   sodipodi:docname="beamer.svg"
   version="1.0"
   inkscape:export-filename="hello.svg"
   inkscape:export-xdpi="96"
   inkscape:export-ydpi="96"
   xmlns:inkscape="http://www.inkscape.org/namespaces/inkscape"
   xmlns:sodipodi="http://sodipodi.sourceforge.net/DTD/sodipodi-0.dtd"
   xmlns="http://www.w3.org/2000/svg"
   xmlns:svg="http://www.w3.org/2000/svg"
   xmlns:rdf="http://www.w3.org/1999/02/22-rdf-syntax-ns#"
   xmlns:cc="http://creativecommons.org/ns#"
   xmlns:dc="http://purl.org/dc/elements/1.1/">
  <defs
     id="defs4" />
  <sodipodi:namedview
     id="base"
     pagecolor="#ffffff"
     bordercolor="#000000"
     borderopacity="0.3"
     inkscape:pageopacity="0.0"
     inkscape:pageshadow="2"
     inkscape:zoom="1.540463"
     inkscape:cx="226.77165"
     inkscape:cy="170.07874"
     inkscape:document-units="mm"
     inkscape:current-layer="layer1"
     inkscape:window-width="988"
     inkscape:window-height="724"
     inkscape:window-x="33"
     inkscape:window-y="22"
     width="12.8cm"
     height="9.6cm"
     units="cm"
     showgrid="true"
     gridspacingx="2mm"
     gridspacingy="2mm"
     grid_units="mm"
     gridempspacing="5"
     inkscape:object-paths="false"
     inkscape:grid-points="true"
     inkscape:grid-bbox="true"
     inkscape:guide-points="true"
     showguides="true"
     inkscape:guide-bbox="true"
     inkscape:showpageshadow="2"
     inkscape:pagecheckerboard="0"
     inkscape:deskcolor="#d1d1d1">
    <sodipodi:guide
       orientation="vertical"
       position="56.476527,0"
       id="guide3573"
       inkscape:locked="false" />
    <sodipodi:guide
       orientation="horizontal"
       position="0,11.035643"
       id="guide3579"
       inkscape:locked="false" />
    <sodipodi:guide
       orientation="horizontal"
       position="0,24.018753"
       id="guide3886"
       inkscape:locked="false" />
    <sodipodi:guide
       orientation="horizontal"
       position="0,285.62841"
       id="guide3988"
       inkscape:locked="false" />
    <sodipodi:guide
       orientation="horizontal"
       position="0,303.15561"
       id="guide4081"
       inkscape:locked="false" />
    <inkscape:page
       x="0"
       y="0"
       width="453.5433"
       height="340.15747"
       id="page2"
       margin="0"
       bleed="0" />
  </sodipodi:namedview>
  <metadata
     id="metadata7">
    <rdf:RDF>
      <cc:Work
         rdf:about="">
        <dc:format>image/svg+xml</dc:format>
        <dc:type
           rdf:resource="http://purl.org/dc/dcmitype/StillImage" />
      </cc:Work>
    </rdf:RDF>
  </metadata>
  <g
     inkscape:label="Layer 1"
     inkscape:groupmode="layer"
     id="layer1">
    <path
       d="m 97.775869,138.83339 h -5.08946 v -16.99437 q 0,-2.05749 -0.24363,-3.84778 -0.24362,-1.81701 -0.89336,-2.83239 -0.6768,-1.12228 -1.94916,-1.65669 -1.27237,-0.56113 -3.30274,-0.56113 -2.084519,0 -4.358539,1.01538 -2.27402,1.01539 -4.35854,2.59191 v 22.28507 H 72.490975 V 97.255974 h 5.089465 v 15.043756 q 2.38231,-1.95061 4.92705,-3.04616 2.54473,-1.09555 5.224829,-1.09555 4.89996,0 7.47177,2.91256 2.57181,2.91255 2.57181,8.3903 z m 35.111941,-14.40246 h -22.27997 q 0,2.75223 0.83922,4.80973 0.83922,2.03077 2.30109,3.34008 1.40773,1.2826 3.32981,1.92389 1.94916,0.6413 4.27733,0.6413 3.08616,0 6.19941,-1.20243 3.14031,-1.22915 4.46682,-2.40486 h 0.27069 v 5.47774 q -2.5718,1.06883 -5.2519,1.79029 -2.68009,0.72146 -5.6309,0.72146 -7.52592,0 -11.7491,-4.00811 -4.22318,-4.03483 -4.22318,-11.43646 0,-7.32147 4.03368,-11.62351 4.06075,-4.30203 10.66623,-4.30203 6.1182,0 9.42094,3.52713 3.32981,3.52714 3.32981,10.02027 z m -4.95411,-3.84778 q -0.0273,-3.95466 -2.03038,-6.11904 -1.97623,-2.16438 -6.03698,-2.16438 -4.08782,0 -6.52426,2.37814 -2.40938,2.37815 -2.73424,5.90528 z m 17.81315,18.25024 h -5.08948 V 97.255974 h 5.08948 z m 15.21426,0 h -5.08947 V 97.255974 h 5.08947 z m 35.84288,-14.91015 q 0,7.29475 -3.79004,11.51662 -3.79003,4.22187 -10.15187,4.22187 -6.41598,0 -10.20601,-4.22187 -3.76296,-4.22187 -3.76296,-11.51662 0,-7.29475 3.76296,-11.51663 3.79003,-4.24859 10.20601,-4.24859 6.36184,0 10.15187,4.24859 3.79004,4.22188 3.79004,11.51663 z m -5.25191,0 q 0,-5.79839 -2.30109,-8.60407 -2.30109,-2.8324 -6.38891,-2.8324 -4.14196,0 -6.44305,2.8324 -2.27402,2.80568 -2.27402,8.60407 0,5.61134 2.30109,8.5239 2.30109,2.88584 6.41598,2.88584 4.06075,0 6.36184,-2.85912 2.32816,-2.88584 2.32816,-8.55062 z m 70.65703,-14.93688 -7.87786,29.84703 h -4.71046 l -7.76956,-23.00653 -7.71541,23.00653 h -4.68344 l -7.95903,-29.84703 h 5.30601 l 5.54972,23.11341 7.55297,-23.11341 h 4.19614 l 7.74248,23.11341 5.25191,-23.11341 z m 33.10861,14.93688 q 0,7.29475 -3.79002,11.51662 -3.79002,4.22187 -10.15189,4.22187 -6.41597,0 -10.20599,-4.22187 -3.76295,-4.22187 -3.76295,-11.51662 0,-7.29475 3.76295,-11.51663 3.79002,-4.24859 10.20599,-4.24859 6.36187,0 10.15189,4.24859 3.79002,4.22188 3.79002,11.51663 z m -5.25191,0 q 0,-5.79839 -2.30105,-8.60407 -2.30111,-2.8324 -6.38895,-2.8324 -4.14194,0 -6.44305,2.8324 -2.27398,2.80568 -2.27398,8.60407 0,5.61134 2.30106,8.5239 2.3011,2.88584 6.41597,2.88584 4.06077,0 6.36187,-2.85912 2.32813,-2.88584 2.32813,-8.55062 z m 31.99874,-9.45913 h -0.27075 q -1.13699,-0.26719 -2.21988,-0.37409 -1.05577,-0.13362 -2.51765,-0.13362 -2.35521,0 -4.54802,1.04211 -2.1928,1.01539 -4.22321,2.64535 v 21.18952 h -5.08946 v -29.84703 h 5.08946 v 4.40892 q 3.03203,-2.40487 5.33313,-3.39353 2.32818,-1.01539 4.73754,-1.01539 1.32651,0 1.9221,0.0802 0.59555,0.0534 1.78674,0.24047 z m 9.93529,24.36928 h -5.0895 V 97.255974 h 5.0895 z m 34.59757,0 h -5.0895 v -3.12633 q -2.19281,1.87046 -4.57509,2.91256 -2.38233,1.04211 -5.17069,1.04211 -5.41435,0 -8.60878,-4.11499 -3.16739,-4.11499 -3.16739,-11.40974 0,-3.79434 1.08288,-6.76034 1.10992,-2.966 2.97788,-5.05021 1.84084,-2.03077 4.27732,-3.0996 2.4635,-1.06883 5.08946,-1.06883 2.38232,0 4.22316,0.50769 1.84089,0.48098 3.87125,1.52308 V 97.255974 h 5.0895 z m -5.0895,-7.3482 v -17.12796 q -2.05744,-0.90851 -3.68173,-1.25588 -1.62428,-0.34736 -3.54639,-0.34736 -4.27732,0 -6.65965,2.93928 -2.38228,2.93928 -2.38228,8.33686 0,5.31742 1.84089,8.09637 1.84083,2.75223 5.9016,2.75223 2.16573,0 4.38561,-0.93522 2.21988,-0.96195 4.14195,-2.45831 z"
       id="text1"
       style="white-space:pre;stroke-width:4.59018"
       aria-label="hello world" />
  </g>
</svg>
